<?xml version="1.0" encoding="UTF-8"?>
<!-- Created with Inkscape (http://www.inkscape.org/) -->
<svg width="148.41mm" height="63.666mm" version="1.1" viewBox="0 0 148.41261 63.665602" xmlns="http://www.w3.org/2000/svg" xmlns:cc="http://creativecommons.org/ns#" xmlns:dc="http://purl.org/dc/elements/1.1/" xmlns:rdf="http://www.w3.org/1999/02/22-rdf-syntax-ns#">
 <metadata>
  <rdf:RDF>
   <cc:Work rdf:about="">
    <dc:format>image/svg+xml</dc:format>
    <dc:type rdf:resource="http://purl.org/dc/dcmitype/StillImage"/>
    <dc:title/>
   </cc:Work>
  </rdf:RDF>
 </metadata>
 <g transform="translate(-30.794 -27.917)">
  <circle cx="105.06" cy="53.731" r="23.615" fill="none" stroke="#08e" stroke-linecap="round" stroke-linejoin="round" stroke-width="2.4"/>
  <circle cx="105.06" cy="53.731" r="22.066" fill="#f94" stroke="#111" stroke-linecap="round" stroke-linejoin="round" stroke-width="2.4"/>
  <g fill="none" stroke="#111" stroke-width="2.4">
   <path d="m92.603 35.576c2.5697-1.0056 8.9935-0.48622 16.313 7.5997 9.6086 10.614 13.854 24.245 9.9438 27.82"/>
   <path d="m83.039 53.519c0.46926-5.4747 5.1739-9.1133 9.698-9.7762 3.4507-0.50558 5.892 0.19502 12.279-4.4066 3.7909-2.7313 5.5304-4.8623 3.2161-7.4489"/>
   <path d="m89.25 69.088c-2.6719-4.7058 6.1165-15.48 18.545-24.587 9.2098-6.7482 12.236-6.664 14.227-4.839"/>
   <path d="m100.79 75.652c3.9887-2.8938 5.3182-9.2287 6.4132-15.173 1.0949-5.9439 0.85544-7.7906 6.5696-11.731 4.5362-3.1284 6.335-2.3463 9.698 0.46926 2.0334 1.7206 3.0502 4.0669 3.5976 5.3965"/>
  </g>
  <g transform="matrix(-.0077272 -.010474 .010447 -.0077399 45.618 39.514)" fill="#08e">
   <path d="m571.77 123.56c25.121-33.626 40.157-68.538 40.23-93.48-0.031-8.077-1.651-14.389-4.733-19.091-0.324-0.575-1.212-2.08-2.779-3.563-1.558-1.546-2.958-2.372-3.261-2.539-4.932-3.292-11.274-4.88-19.353-4.88-24.88 0.042-59.802 15.068-93.438 40.23-27.188 20.345-54.378 48.997-92.017 88.673-6.385 6.729-13.104 13.804-20.21 21.223l-72.905-21.85 0.219-0.209c3.03-3.062 4.755-7.273 4.713-11.411 0.042-4.368-1.724-8.579-4.765-11.609l-13.166-13.187c-3.041-3.062-7.242-4.817-11.588-4.817-4.389 0-8.485 1.693-11.547 4.786l-19.697 19.708-10.429-3.114c2.247-2.853 3.49-6.416 3.448-9.927 0.042-4.431-1.672-8.558-4.754-11.62l-13.229-13.229c-3.02-3.03-7.2-4.765-11.588-4.765-4.368 0-8.454 1.704-11.484 4.786l-18.077 18.067-74.128-22.205c-1.661-0.491-3.417-0.752-5.298-0.752-5.266 0.063-10.146 2.017-13.709 5.549l-26.061 26.071c-2.958 2.957-4.619 6.959-4.587 10.752-0.094 5.59 2.999 10.752 7.952 13.406l155.88 87.085c0.763 0.428 2.968 2.059 3.783 2.874l44.441 44.431c-41.568 43.793-78.601 86.208-107.46 123.1-2.696 3.428-5.246 6.771-7.754 10.084l-120.6-10.951c-0.585-0.073-1.244-0.126-2.08-0.126-5.528 0.115-10.93 2.3-14.942 6.176l-12.153 12.142c-2.999 2.937-4.692 6.907-4.65 10.742-0.094 5.852 3.448 11.264 8.767 13.636l84.838 40.293c0.731 0.366 2.633 1.714 3.25 2.33l7.043 6.991c-2.205 6.207-3.323 11.588-3.386 16.312-0.021 6.321 2.017 11.734 5.915 15.632l0.303 0.262 0.083 0.062c4.002 3.877 9.185 5.852 15.601 5.852 4.619-0.073 9.948-1.17 16.176-3.364l7.147 7.137c0.554 0.585 1.881 2.445 2.226 3.187l40.209 84.651c2.456 5.402 7.753 8.902 13.521 8.902h0.083c3.992 0 7.806-1.599 10.721-4.524l12.445-12.487c3.688-3.887 5.862-9.247 5.945-14.9 0-0.689-0.031-1.223-0.052-1.516l-10.982-121.04c3.302-2.487 6.646-5.047 10.083-7.722 36.949-28.903 79.374-65.968 123.08-107.47l44.473 44.515c0.721 0.689 2.403 2.895 2.895 3.814l86.918 155.6c2.654 5.026 7.764 8.13 13.428 8.13 4.044 0 7.889-1.599 10.836-4.566l26.248-26.229c3.407-3.562 5.319-8.401 5.371-13.688 0-1.776-0.25-3.5-0.71-5.12l-22.205-74.149 18.066-18.098c3.041-3.021 4.766-7.221 4.766-11.536 0-4.337-1.683-8.412-4.744-11.516l-13.25-13.239c-3.03-3.041-7.221-4.775-11.536-4.775-3.657 0-7.23 1.223-10.021 3.428l-3.104-10.387 19.718-19.718c3.03-3.041 4.755-7.242 4.755-11.568 0-4.357-1.683-8.442-4.755-11.504l-13.188-13.188c-3.041-3.083-7.262-4.828-11.599-4.828-4.357 0-8.579 1.766-11.557 4.807l-0.136 0.125-21.84-72.895c7.545-7.189 14.702-14.034 21.547-20.481 39.535-37.515 68.082-64.6 88.374-91.726z" fill="#08e"/>
  </g>
  <path d="m54.422 35.167 21.377 3.5428" fill="none" stroke="#c8dcf3" stroke-width="2"/>
  <g transform="matrix(-.0091439 -.0092634 .0092343 -.0091526 40.498 51.473)" fill="#08e">
   <path d="m571.77 123.56c25.121-33.626 40.157-68.538 40.23-93.48-0.031-8.077-1.651-14.389-4.733-19.091-0.324-0.575-1.212-2.08-2.779-3.563-1.558-1.546-2.958-2.372-3.261-2.539-4.932-3.292-11.274-4.88-19.353-4.88-24.88 0.042-59.802 15.068-93.438 40.23-27.188 20.345-54.378 48.997-92.017 88.673-6.385 6.729-13.104 13.804-20.21 21.223l-72.905-21.85 0.219-0.209c3.03-3.062 4.755-7.273 4.713-11.411 0.042-4.368-1.724-8.579-4.765-11.609l-13.166-13.187c-3.041-3.062-7.242-4.817-11.588-4.817-4.389 0-8.485 1.693-11.547 4.786l-19.697 19.708-10.429-3.114c2.247-2.853 3.49-6.416 3.448-9.927 0.042-4.431-1.672-8.558-4.754-11.62l-13.229-13.229c-3.02-3.03-7.2-4.765-11.588-4.765-4.368 0-8.454 1.704-11.484 4.786l-18.077 18.067-74.128-22.205c-1.661-0.491-3.417-0.752-5.298-0.752-5.266 0.063-10.146 2.017-13.709 5.549l-26.061 26.071c-2.958 2.957-4.619 6.959-4.587 10.752-0.094 5.59 2.999 10.752 7.952 13.406l155.88 87.085c0.763 0.428 2.968 2.059 3.783 2.874l44.441 44.431c-41.568 43.793-78.601 86.208-107.46 123.1-2.696 3.428-5.246 6.771-7.754 10.084l-120.6-10.951c-0.585-0.073-1.244-0.126-2.08-0.126-5.528 0.115-10.93 2.3-14.942 6.176l-12.153 12.142c-2.999 2.937-4.692 6.907-4.65 10.742-0.094 5.852 3.448 11.264 8.767 13.636l84.838 40.293c0.731 0.366 2.633 1.714 3.25 2.33l7.043 6.991c-2.205 6.207-3.323 11.588-3.386 16.312-0.021 6.321 2.017 11.734 5.915 15.632l0.303 0.262 0.083 0.062c4.002 3.877 9.185 5.852 15.601 5.852 4.619-0.073 9.948-1.17 16.176-3.364l7.147 7.137c0.554 0.585 1.881 2.445 2.226 3.187l40.209 84.651c2.456 5.402 7.753 8.902 13.521 8.902h0.083c3.992 0 7.806-1.599 10.721-4.524l12.445-12.487c3.688-3.887 5.862-9.247 5.945-14.9 0-0.689-0.031-1.223-0.052-1.516l-10.982-121.04c3.302-2.487 6.646-5.047 10.083-7.722 36.949-28.903 79.374-65.968 123.08-107.47l44.473 44.515c0.721 0.689 2.403 2.895 2.895 3.814l86.918 155.6c2.654 5.026 7.764 8.13 13.428 8.13 4.044 0 7.889-1.599 10.836-4.566l26.248-26.229c3.407-3.562 5.319-8.401 5.371-13.688 0-1.776-0.25-3.5-0.71-5.12l-22.205-74.149 18.066-18.098c3.041-3.021 4.766-7.221 4.766-11.536 0-4.337-1.683-8.412-4.744-11.516l-13.25-13.239c-3.03-3.041-7.221-4.775-11.536-4.775-3.657 0-7.23 1.223-10.021 3.428l-3.104-10.387 19.718-19.718c3.03-3.041 4.755-7.242 4.755-11.568 0-4.357-1.683-8.442-4.755-11.504l-13.188-13.188c-3.041-3.083-7.262-4.828-11.599-4.828-4.357 0-8.579 1.766-11.557 4.807l-0.136 0.125-21.84-72.895c7.545-7.189 14.702-14.034 21.547-20.481 39.535-37.515 68.082-64.6 88.374-91.726z" fill="#08e"/>
  </g>
  <path d="m48.584 45.827 23.41 0.49382" fill="none" stroke="#c8dcf3" stroke-width="2"/>
  <g transform="matrix(-.010306 -.0079507 .0079208 -.01031 37.967 64.129)" fill="#08e">
   <path d="m571.77 123.56c25.121-33.626 40.157-68.538 40.23-93.48-0.031-8.077-1.651-14.389-4.733-19.091-0.324-0.575-1.212-2.08-2.779-3.563-1.558-1.546-2.958-2.372-3.261-2.539-4.932-3.292-11.274-4.88-19.353-4.88-24.88 0.042-59.802 15.068-93.438 40.23-27.188 20.345-54.378 48.997-92.017 88.673-6.385 6.729-13.104 13.804-20.21 21.223l-72.905-21.85 0.219-0.209c3.03-3.062 4.755-7.273 4.713-11.411 0.042-4.368-1.724-8.579-4.765-11.609l-13.166-13.187c-3.041-3.062-7.242-4.817-11.588-4.817-4.389 0-8.485 1.693-11.547 4.786l-19.697 19.708-10.429-3.114c2.247-2.853 3.49-6.416 3.448-9.927 0.042-4.431-1.672-8.558-4.754-11.62l-13.229-13.229c-3.02-3.03-7.2-4.765-11.588-4.765-4.368 0-8.454 1.704-11.484 4.786l-18.077 18.067-74.128-22.205c-1.661-0.491-3.417-0.752-5.298-0.752-5.266 0.063-10.146 2.017-13.709 5.549l-26.061 26.071c-2.958 2.957-4.619 6.959-4.587 10.752-0.094 5.59 2.999 10.752 7.952 13.406l155.88 87.085c0.763 0.428 2.968 2.059 3.783 2.874l44.441 44.431c-41.568 43.793-78.601 86.208-107.46 123.1-2.696 3.428-5.246 6.771-7.754 10.084l-120.6-10.951c-0.585-0.073-1.244-0.126-2.08-0.126-5.528 0.115-10.93 2.3-14.942 6.176l-12.153 12.142c-2.999 2.937-4.692 6.907-4.65 10.742-0.094 5.852 3.448 11.264 8.767 13.636l84.838 40.293c0.731 0.366 2.633 1.714 3.25 2.33l7.043 6.991c-2.205 6.207-3.323 11.588-3.386 16.312-0.021 6.321 2.017 11.734 5.915 15.632l0.303 0.262 0.083 0.062c4.002 3.877 9.185 5.852 15.601 5.852 4.619-0.073 9.948-1.17 16.176-3.364l7.147 7.137c0.554 0.585 1.881 2.445 2.226 3.187l40.209 84.651c2.456 5.402 7.753 8.902 13.521 8.902h0.083c3.992 0 7.806-1.599 10.721-4.524l12.445-12.487c3.688-3.887 5.862-9.247 5.945-14.9 0-0.689-0.031-1.223-0.052-1.516l-10.982-121.04c3.302-2.487 6.646-5.047 10.083-7.722 36.949-28.903 79.374-65.968 123.08-107.47l44.473 44.515c0.721 0.689 2.403 2.895 2.895 3.814l86.918 155.6c2.654 5.026 7.764 8.13 13.428 8.13 4.044 0 7.889-1.599 10.836-4.566l26.248-26.229c3.407-3.562 5.319-8.401 5.371-13.688 0-1.776-0.25-3.5-0.71-5.12l-22.205-74.149 18.066-18.098c3.041-3.021 4.766-7.221 4.766-11.536 0-4.337-1.683-8.412-4.744-11.516l-13.25-13.239c-3.03-3.041-7.221-4.775-11.536-4.775-3.657 0-7.23 1.223-10.021 3.428l-3.104-10.387 19.718-19.718c3.03-3.041 4.755-7.242 4.755-11.568 0-4.357-1.683-8.442-4.755-11.504l-13.188-13.188c-3.041-3.083-7.262-4.828-11.599-4.828-4.357 0-8.579 1.766-11.557 4.807l-0.136 0.125-21.84-72.895c7.545-7.189 14.702-14.034 21.547-20.481 39.535-37.515 68.082-64.6 88.374-91.726z" fill="#08e"/>
  </g>
  <path d="m45.216 57.456 24.954-2.8927" fill="none" stroke="#c8dcf3" stroke-width="2"/>
  <g transform="matrix(-.01479 -.010698 .010656 -.014796 49.433 62.76)" fill="#6aafff"></g>
  <g transform="matrix(.0077272 -.010474 -.010447 -.0077399 164.38 39.514)" fill="#08e">
   <path d="m571.77 123.56c25.121-33.626 40.157-68.538 40.23-93.48-0.031-8.077-1.651-14.389-4.733-19.091-0.324-0.575-1.212-2.08-2.779-3.563-1.558-1.546-2.958-2.372-3.261-2.539-4.932-3.292-11.274-4.88-19.353-4.88-24.88 0.042-59.802 15.068-93.438 40.23-27.188 20.345-54.378 48.997-92.017 88.673-6.385 6.729-13.104 13.804-20.21 21.223l-72.905-21.85 0.219-0.209c3.03-3.062 4.755-7.273 4.713-11.411 0.042-4.368-1.724-8.579-4.765-11.609l-13.166-13.187c-3.041-3.062-7.242-4.817-11.588-4.817-4.389 0-8.485 1.693-11.547 4.786l-19.697 19.708-10.429-3.114c2.247-2.853 3.49-6.416 3.448-9.927 0.042-4.431-1.672-8.558-4.754-11.62l-13.229-13.229c-3.02-3.03-7.2-4.765-11.588-4.765-4.368 0-8.454 1.704-11.484 4.786l-18.077 18.067-74.128-22.205c-1.661-0.491-3.417-0.752-5.298-0.752-5.266 0.063-10.146 2.017-13.709 5.549l-26.061 26.071c-2.958 2.957-4.619 6.959-4.587 10.752-0.094 5.59 2.999 10.752 7.952 13.406l155.88 87.085c0.763 0.428 2.968 2.059 3.783 2.874l44.441 44.431c-41.568 43.793-78.601 86.208-107.46 123.1-2.696 3.428-5.246 6.771-7.754 10.084l-120.6-10.951c-0.585-0.073-1.244-0.126-2.08-0.126-5.528 0.115-10.93 2.3-14.942 6.176l-12.153 12.142c-2.999 2.937-4.692 6.907-4.65 10.742-0.094 5.852 3.448 11.264 8.767 13.636l84.838 40.293c0.731 0.366 2.633 1.714 3.25 2.33l7.043 6.991c-2.205 6.207-3.323 11.588-3.386 16.312-0.021 6.321 2.017 11.734 5.915 15.632l0.303 0.262 0.083 0.062c4.002 3.877 9.185 5.852 15.601 5.852 4.619-0.073 9.948-1.17 16.176-3.364l7.147 7.137c0.554 0.585 1.881 2.445 2.226 3.187l40.209 84.651c2.456 5.402 7.753 8.902 13.521 8.902h0.083c3.992 0 7.806-1.599 10.721-4.524l12.445-12.487c3.688-3.887 5.862-9.247 5.945-14.9 0-0.689-0.031-1.223-0.052-1.516l-10.982-121.04c3.302-2.487 6.646-5.047 10.083-7.722 36.949-28.903 79.374-65.968 123.08-107.47l44.473 44.515c0.721 0.689 2.403 2.895 2.895 3.814l86.918 155.6c2.654 5.026 7.764 8.13 13.428 8.13 4.044 0 7.889-1.599 10.836-4.566l26.248-26.229c3.407-3.562 5.319-8.401 5.371-13.688 0-1.776-0.25-3.5-0.71-5.12l-22.205-74.149 18.066-18.098c3.041-3.021 4.766-7.221 4.766-11.536 0-4.337-1.683-8.412-4.744-11.516l-13.25-13.239c-3.03-3.041-7.221-4.775-11.536-4.775-3.657 0-7.23 1.223-10.021 3.428l-3.104-10.387 19.718-19.718c3.03-3.041 4.755-7.242 4.755-11.568 0-4.357-1.683-8.442-4.755-11.504l-13.188-13.188c-3.041-3.083-7.262-4.828-11.599-4.828-4.357 0-8.579 1.766-11.557 4.807l-0.136 0.125-21.84-72.895c7.545-7.189 14.702-14.034 21.547-20.481 39.535-37.515 68.082-64.6 88.374-91.726z" fill="#08e"/>
  </g>
  <path d="m155.58 35.167-21.377 3.5428" fill="none" stroke="#c8dcf3" stroke-width="2"/>
  <g transform="matrix(.0091439 -.0092634 -.0092343 -.0091526 169.5 51.473)" fill="#08e">
   <path d="m571.77 123.56c25.121-33.626 40.157-68.538 40.23-93.48-0.031-8.077-1.651-14.389-4.733-19.091-0.324-0.575-1.212-2.08-2.779-3.563-1.558-1.546-2.958-2.372-3.261-2.539-4.932-3.292-11.274-4.88-19.353-4.88-24.88 0.042-59.802 15.068-93.438 40.23-27.188 20.345-54.378 48.997-92.017 88.673-6.385 6.729-13.104 13.804-20.21 21.223l-72.905-21.85 0.219-0.209c3.03-3.062 4.755-7.273 4.713-11.411 0.042-4.368-1.724-8.579-4.765-11.609l-13.166-13.187c-3.041-3.062-7.242-4.817-11.588-4.817-4.389 0-8.485 1.693-11.547 4.786l-19.697 19.708-10.429-3.114c2.247-2.853 3.49-6.416 3.448-9.927 0.042-4.431-1.672-8.558-4.754-11.62l-13.229-13.229c-3.02-3.03-7.2-4.765-11.588-4.765-4.368 0-8.454 1.704-11.484 4.786l-18.077 18.067-74.128-22.205c-1.661-0.491-3.417-0.752-5.298-0.752-5.266 0.063-10.146 2.017-13.709 5.549l-26.061 26.071c-2.958 2.957-4.619 6.959-4.587 10.752-0.094 5.59 2.999 10.752 7.952 13.406l155.88 87.085c0.763 0.428 2.968 2.059 3.783 2.874l44.441 44.431c-41.568 43.793-78.601 86.208-107.46 123.1-2.696 3.428-5.246 6.771-7.754 10.084l-120.6-10.951c-0.585-0.073-1.244-0.126-2.08-0.126-5.528 0.115-10.93 2.3-14.942 6.176l-12.153 12.142c-2.999 2.937-4.692 6.907-4.65 10.742-0.094 5.852 3.448 11.264 8.767 13.636l84.838 40.293c0.731 0.366 2.633 1.714 3.25 2.33l7.043 6.991c-2.205 6.207-3.323 11.588-3.386 16.312-0.021 6.321 2.017 11.734 5.915 15.632l0.303 0.262 0.083 0.062c4.002 3.877 9.185 5.852 15.601 5.852 4.619-0.073 9.948-1.17 16.176-3.364l7.147 7.137c0.554 0.585 1.881 2.445 2.226 3.187l40.209 84.651c2.456 5.402 7.753 8.902 13.521 8.902h0.083c3.992 0 7.806-1.599 10.721-4.524l12.445-12.487c3.688-3.887 5.862-9.247 5.945-14.9 0-0.689-0.031-1.223-0.052-1.516l-10.982-121.04c3.302-2.487 6.646-5.047 10.083-7.722 36.949-28.903 79.374-65.968 123.08-107.47l44.473 44.515c0.721 0.689 2.403 2.895 2.895 3.814l86.918 155.6c2.654 5.026 7.764 8.13 13.428 8.13 4.044 0 7.889-1.599 10.836-4.566l26.248-26.229c3.407-3.562 5.319-8.401 5.371-13.688 0-1.776-0.25-3.5-0.71-5.12l-22.205-74.149 18.066-18.098c3.041-3.021 4.766-7.221 4.766-11.536 0-4.337-1.683-8.412-4.744-11.516l-13.25-13.239c-3.03-3.041-7.221-4.775-11.536-4.775-3.657 0-7.23 1.223-10.021 3.428l-3.104-10.387 19.718-19.718c3.03-3.041 4.755-7.242 4.755-11.568 0-4.357-1.683-8.442-4.755-11.504l-13.188-13.188c-3.041-3.083-7.262-4.828-11.599-4.828-4.357 0-8.579 1.766-11.557 4.807l-0.136 0.125-21.84-72.895c7.545-7.189 14.702-14.034 21.547-20.481 39.535-37.515 68.082-64.6 88.374-91.726z" fill="#08e"/>
  </g>
  <path d="m161.42 45.827-23.41 0.49382" fill="none" stroke="#c8dcf3" stroke-width="2"/>
  <g transform="matrix(.010306 -.0079507 -.0079208 -.01031 172.03 64.129)" fill="#08e">
   <path d="m571.77 123.56c25.121-33.626 40.157-68.538 40.23-93.48-0.031-8.077-1.651-14.389-4.733-19.091-0.324-0.575-1.212-2.08-2.779-3.563-1.558-1.546-2.958-2.372-3.261-2.539-4.932-3.292-11.274-4.88-19.353-4.88-24.88 0.042-59.802 15.068-93.438 40.23-27.188 20.345-54.378 48.997-92.017 88.673-6.385 6.729-13.104 13.804-20.21 21.223l-72.905-21.85 0.219-0.209c3.03-3.062 4.755-7.273 4.713-11.411 0.042-4.368-1.724-8.579-4.765-11.609l-13.166-13.187c-3.041-3.062-7.242-4.817-11.588-4.817-4.389 0-8.485 1.693-11.547 4.786l-19.697 19.708-10.429-3.114c2.247-2.853 3.49-6.416 3.448-9.927 0.042-4.431-1.672-8.558-4.754-11.62l-13.229-13.229c-3.02-3.03-7.2-4.765-11.588-4.765-4.368 0-8.454 1.704-11.484 4.786l-18.077 18.067-74.128-22.205c-1.661-0.491-3.417-0.752-5.298-0.752-5.266 0.063-10.146 2.017-13.709 5.549l-26.061 26.071c-2.958 2.957-4.619 6.959-4.587 10.752-0.094 5.59 2.999 10.752 7.952 13.406l155.88 87.085c0.763 0.428 2.968 2.059 3.783 2.874l44.441 44.431c-41.568 43.793-78.601 86.208-107.46 123.1-2.696 3.428-5.246 6.771-7.754 10.084l-120.6-10.951c-0.585-0.073-1.244-0.126-2.08-0.126-5.528 0.115-10.93 2.3-14.942 6.176l-12.153 12.142c-2.999 2.937-4.692 6.907-4.65 10.742-0.094 5.852 3.448 11.264 8.767 13.636l84.838 40.293c0.731 0.366 2.633 1.714 3.25 2.33l7.043 6.991c-2.205 6.207-3.323 11.588-3.386 16.312-0.021 6.321 2.017 11.734 5.915 15.632l0.303 0.262 0.083 0.062c4.002 3.877 9.185 5.852 15.601 5.852 4.619-0.073 9.948-1.17 16.176-3.364l7.147 7.137c0.554 0.585 1.881 2.445 2.226 3.187l40.209 84.651c2.456 5.402 7.753 8.902 13.521 8.902h0.083c3.992 0 7.806-1.599 10.721-4.524l12.445-12.487c3.688-3.887 5.862-9.247 5.945-14.9 0-0.689-0.031-1.223-0.052-1.516l-10.982-121.04c3.302-2.487 6.646-5.047 10.083-7.722 36.949-28.903 79.374-65.968 123.08-107.47l44.473 44.515c0.721 0.689 2.403 2.895 2.895 3.814l86.918 155.6c2.654 5.026 7.764 8.13 13.428 8.13 4.044 0 7.889-1.599 10.836-4.566l26.248-26.229c3.407-3.562 5.319-8.401 5.371-13.688 0-1.776-0.25-3.5-0.71-5.12l-22.205-74.149 18.066-18.098c3.041-3.021 4.766-7.221 4.766-11.536 0-4.337-1.683-8.412-4.744-11.516l-13.25-13.239c-3.03-3.041-7.221-4.775-11.536-4.775-3.657 0-7.23 1.223-10.021 3.428l-3.104-10.387 19.718-19.718c3.03-3.041 4.755-7.242 4.755-11.568 0-4.357-1.683-8.442-4.755-11.504l-13.188-13.188c-3.041-3.083-7.262-4.828-11.599-4.828-4.357 0-8.579 1.766-11.557 4.807l-0.136 0.125-21.84-72.895c7.545-7.189 14.702-14.034 21.547-20.481 39.535-37.515 68.082-64.6 88.374-91.726z" fill="#08e"/>
  </g>
  <path d="m164.78 57.456-24.954-2.8927" fill="none" stroke="#c8dcf3" stroke-width="2"/>
 </g>
 <g transform="translate(-30.794 -27.917)">
  <path d="m70.532 60.807 57.997 0.09922-4.8534 29.536-59.033-0.02788z" fill="#111"/>
 </g>
 <g transform="translate(-30.794 -27.917)">
  <g fill="#fff" stroke="#111" stroke-width="5.5" aria-label="PUZZLEBALL CHAMPIONSHIPS">
   <path d="m68.989 70.404-0.75241 3.7765h-2.0474l2.1053-10.534h3.5305q1.4035 0 2.1415 0.95498 0.73794 0.94775 0.44855 2.4236-0.32556 1.6133-1.3746 2.496-1.0418 0.88263-2.5683 0.88263zm0.3328-1.6495h1.4831q0.55707 0 0.99115-0.49196 0.43408-0.4992 0.57878-1.2227 0.15916-0.80305-0.05788-1.2733-0.20981-0.47026-0.81752-0.47026h-1.4831z"/>
   <path d="m83.677 63.647-1.4325 7.1696q-0.36174 1.7942-1.4614 2.6551-1.0924 0.86093-2.6696 0.86093-1.4469 0-2.2572-0.92604-0.80305-0.93328-0.47026-2.59l1.4325-7.1696h2.033l-1.4325 7.1696q-0.20257 1.0201 0.06511 1.4469 0.26768 0.42685 0.95498 0.42685 0.64389 0 1.1069-0.44132 0.47026-0.44132 0.66559-1.4325l1.4325-7.1696z"/>
   <path d="m85.964 72.538h3.7186l-0.32556 1.6423h-5.889l-0.05064-1.0346 4.8472-7.8569h-3.176l0.32556-1.6423h5.6214l-0.19534 0.99839z"/>
   <path d="m93.496 72.538h3.7186l-0.32556 1.6423h-5.889l-0.05064-1.0346 4.8472-7.8569h-3.176l0.32556-1.6423h5.6214l-0.19534 0.99839z"/>
   <path d="m100.98 72.538h3.6318l-0.32556 1.6423h-5.6792l2.1053-10.534h2.0474z"/>
   <path d="m112.15 69.557h-3.328l-0.60048 2.9807h3.9212l-0.32556 1.6423h-5.9686l2.1053-10.534h5.9542l-0.32556 1.6495h-3.914l-0.5209 2.619h3.328z"/>
   <path d="m113.41 74.18 2.1053-10.534h2.9952q1.4686 0 2.2428 0.73794 0.78134 0.73794 0.50643 2.1415-0.1664 0.79582-0.59325 1.3674-0.41961 0.56431-1.1069 0.83922 0.75241 0.20257 0.98392 0.8537 0.23875 0.64389 0.0724 1.5193-0.32556 1.6133-1.2878 2.344-0.95498 0.7307-2.5394 0.7307zm2.9735-4.6447-0.60048 3.0024h1.3312q0.55707 0 0.94051-0.36174 0.38344-0.36897 0.52814-1.078 0.15916-0.80305-7e-3 -1.1793-0.15916-0.38344-0.72347-0.38344zm0.28939-1.4397h1.0201q0.54984-0.01447 0.94051-0.36897 0.39791-0.36174 0.53537-1.0056 0.15193-0.78858-0.0868-1.1069-0.23874-0.31833-0.8971-0.31833h-0.94775z"/>
   <path d="m126.82 71.945h-2.5394l-0.98392 2.2355h-2.0547l4.9124-10.534h2.1198l0.69453 10.534h-2.0546zm-1.8159-1.6567h1.7508l-0.13746-3.5522-0.0434-0.0072z"/>
   <path d="m132.7 72.538h3.6318l-0.32556 1.6423h-5.6792l2.1053-10.534h2.0474z"/>
   <path d="m139.94 72.538h3.6318l-0.32556 1.6423h-5.6792l2.1053-10.534h2.0474z"/>
   <path d="m59.68 84.099 0.01447 0.04341q-0.43408 1.8159-1.3601 2.7564-0.92604 0.93328-2.4743 0.93328-1.4903 0-2.3657-1.2516-0.86816-1.2516-0.49196-3.1254l0.41961-2.0981q0.41238-2.0908 1.4686-3.2267 1.0563-1.1358 2.5756-1.1358 1.541 0 2.3513 1.0273 0.81029 1.0201 0.58601 2.7854h-2.033q0.17363-1.0707-0.07958-1.6133-0.24598-0.54984-1.0201-0.54984-0.59325 0-1.0852 0.74517-0.49196 0.74518-0.7307 1.9534l-0.41961 2.1125q-0.26768 1.295-0.01447 2.0185 0.25322 0.71624 0.97668 0.71624 0.64389 0 1.0418-0.49919 0.39791-0.50643 0.66559-1.5916z"/>
   <path d="m67.799 87.68h-2.033l0.86816-4.3625h-3.0024l-0.86816 4.3625h-2.0474l2.1053-10.534h2.0474l-0.90434 4.5289h3.0024l0.90434-4.5289h2.033z"/>
   <path d="m74.962 85.445h-2.5394l-0.98392 2.2355h-2.0547l4.9124-10.534h2.1198l0.69453 10.534h-2.0547zm-1.8159-1.6567h1.7508l-0.13746-3.5522-0.04341-0.0072z"/>
   <path d="m83.189 77.147 0.17363 7.7194 0.04341 0.0072 3.2773-7.7267h2.6624l-2.1053 10.534h-2.033l0.61495-3.0603 0.93328-3.8561-0.04341-0.01447-3.2122 6.9308h-1.3529l-0.42685-6.8513-0.04341-0.0072-0.59324 3.7982-0.61495 3.0603h-2.0329l2.1053-10.534z"/>
   <path d="m92.074 83.904-0.75241 3.7765h-2.0474l2.1053-10.534h3.5305q1.4035 0 2.1415 0.95498 0.73794 0.94775 0.44855 2.4236-0.32556 1.6133-1.3746 2.496-1.0418 0.88263-2.5683 0.88263zm0.3328-1.6495h1.4831q0.55707 0 0.99115-0.49196 0.43408-0.49919 0.57878-1.2227 0.15916-0.80305-0.05788-1.2733-0.20981-0.47026-0.81752-0.47026h-1.4831z"/>
   <path d="m100.03 87.68h-2.033l2.1053-10.534h2.033z"/>
   <path d="m110.13 83.368q-0.41961 2.0908-1.5772 3.2773-1.1576 1.1865-2.7781 1.1865-1.512 0-2.3874-1.295-0.8754-1.3022-0.49196-3.1977l0.3762-1.8738q0.41961-2.0981 1.5338-3.2846 1.1214-1.1865 2.7275-1.1865 1.5265 0 2.4381 1.3095 0.91158 1.3095 0.53537 3.1905zm-1.6568-1.8883q0.26045-1.2805-0.10852-2.0547-0.36173-0.77411-1.1576-0.77411-0.68006 0-1.172 0.76688-0.48473 0.76688-0.73794 2.033l-0.37621 1.8883q-0.26045 1.3022 0.0651 2.0764 0.32556 0.76688 1.1141 0.76688 0.6873 0 1.2154-0.77411 0.52813-0.78135 0.78135-2.0402z"/>
   <path d="m118.22 87.68h-2.033l-1.635-6.5619h-0.0434l-1.3095 6.5619h-2.0474l2.1053-10.534h2.0474l1.635 6.5474h0.0434l1.3095-6.5474h2.033z"/>
   <path d="m125.26 85.127q0.13746-0.71624-0.12299-1.0707-0.25322-0.36174-1.0418-0.78858-1.4542-0.59325-2.1198-1.4108-0.65835-0.82476-0.3979-2.1342 0.26045-1.3022 1.2371-2.0112 0.97668-0.71624 2.3223-0.71624 1.4325 0 2.2138 0.86816 0.78134 0.86816 0.45578 2.3585l-0.0145 0.03617h-1.9895q0.14469-0.73794-0.13022-1.172-0.27492-0.44132-0.86093-0.44132-0.39068 0-0.74518 0.31109-0.3545 0.31109-0.44131 0.75241-0.13746 0.68006 0.15192 1.0129 0.28939 0.3328 1.2733 0.81752 1.3384 0.55707 1.9317 1.3818 0.59324 0.82476 0.31832 2.1921-0.27491 1.3529-1.2371 2.0402-0.96221 0.68006-2.3223 0.68006-1.4035 0-2.3513-0.78135-0.94051-0.78858-0.57877-2.4381l0.0145-0.03617h1.9895q-0.1881 0.91881 0.20257 1.2661 0.39791 0.34727 1.049 0.34727 0.37621 0 0.73794-0.30386 0.36174-0.31109 0.45579-0.75964z"/>
   <path d="m135.49 87.68h-2.033l0.86817-4.3625h-3.0024l-0.86817 4.3625h-2.0474l2.1053-10.534h2.0474l-0.90434 4.5289h3.0024l0.90434-4.5289h2.033z"/>
   <path d="m139.69 87.68h-2.033l2.1053-10.534h2.033z"/>
   <path d="m144.69 83.904-0.75241 3.7765h-2.0474l2.1053-10.534h3.5305q1.4035 0 2.1415 0.95498 0.73794 0.94775 0.44855 2.4236-0.32556 1.6133-1.3746 2.496-1.0418 0.88263-2.5683 0.88263zm0.33279-1.6495h1.4831q0.55707 0 0.99115-0.49196 0.43408-0.49919 0.57878-1.2227 0.15916-0.80305-0.0579-1.2733-0.20981-0.47026-0.81752-0.47026h-1.4831z"/>
   <path d="m155.48 85.127q0.13746-0.71624-0.12299-1.0707-0.25322-0.36174-1.0418-0.78858-1.4542-0.59325-2.1198-1.4108-0.65836-0.82476-0.39791-2.1342 0.26045-1.3022 1.2371-2.0112 0.97668-0.71624 2.3223-0.71624 1.4325 0 2.2138 0.86816 0.78135 0.86816 0.45579 2.3585l-0.0145 0.03617h-1.9895q0.14469-0.73794-0.13023-1.172-0.27491-0.44132-0.86093-0.44132-0.39067 0-0.74517 0.31109-0.3545 0.31109-0.44132 0.75241-0.13746 0.68006 0.15193 1.0129 0.28939 0.3328 1.2733 0.81752 1.3384 0.55707 1.9317 1.3818 0.59325 0.82476 0.31833 2.1921-0.27492 1.3529-1.2371 2.0402-0.96222 0.68006-2.3223 0.68006-1.4035 0-2.3513-0.78135-0.94051-0.78858-0.57877-2.4381l0.0145-0.03617h1.9896q-0.1881 0.91881 0.20257 1.2661 0.39791 0.34727 1.049 0.34727 0.3762 0 0.73794-0.30386 0.36173-0.31109 0.45579-0.75964z"/>
  </g>
 </g>
 <g transform="translate(-30.794 -27.917)">
  <g fill="#fff" stroke="#fff" stroke-width=".265" aria-label="PUZZLEBALL CHAMPIONSHIPS">
   <path d="m68.989 70.404-0.75241 3.7765h-2.0474l2.1053-10.534h3.5305q1.4035 0 2.1415 0.95498 0.73794 0.94775 0.44855 2.4236-0.32556 1.6133-1.3746 2.496-1.0418 0.88263-2.5683 0.88263zm0.3328-1.6495h1.4831q0.55707 0 0.99115-0.49196 0.43408-0.4992 0.57878-1.2227 0.15916-0.80305-0.05788-1.2733-0.20981-0.47026-0.81752-0.47026h-1.4831z"/>
   <path d="m83.677 63.647-1.4325 7.1696q-0.36174 1.7942-1.4614 2.6551-1.0924 0.86093-2.6696 0.86093-1.4469 0-2.2572-0.92604-0.80305-0.93328-0.47026-2.59l1.4325-7.1696h2.033l-1.4325 7.1696q-0.20257 1.0201 0.06511 1.4469 0.26768 0.42685 0.95498 0.42685 0.64389 0 1.1069-0.44132 0.47026-0.44132 0.66559-1.4325l1.4325-7.1696z"/>
   <path d="m85.964 72.538h3.7186l-0.32556 1.6423h-5.889l-0.05064-1.0346 4.8472-7.8569h-3.176l0.32556-1.6423h5.6214l-0.19534 0.99839z"/>
   <path d="m93.496 72.538h3.7186l-0.32556 1.6423h-5.889l-0.05064-1.0346 4.8472-7.8569h-3.176l0.32556-1.6423h5.6214l-0.19534 0.99839z"/>
   <path d="m100.98 72.538h3.6318l-0.32556 1.6423h-5.6792l2.1053-10.534h2.0474z"/>
   <path d="m112.15 69.557h-3.328l-0.60048 2.9807h3.9212l-0.32556 1.6423h-5.9686l2.1053-10.534h5.9542l-0.32556 1.6495h-3.914l-0.5209 2.619h3.328z"/>
   <path d="m113.41 74.18 2.1053-10.534h2.9952q1.4686 0 2.2428 0.73794 0.78134 0.73794 0.50643 2.1415-0.1664 0.79582-0.59325 1.3674-0.41961 0.56431-1.1069 0.83922 0.75241 0.20257 0.98392 0.8537 0.23875 0.64389 0.0724 1.5193-0.32556 1.6133-1.2878 2.344-0.95498 0.7307-2.5394 0.7307zm2.9735-4.6447-0.60048 3.0024h1.3312q0.55707 0 0.94051-0.36174 0.38344-0.36897 0.52814-1.078 0.15916-0.80305-7e-3 -1.1793-0.15916-0.38344-0.72347-0.38344zm0.28939-1.4397h1.0201q0.54984-0.01447 0.94051-0.36897 0.39791-0.36174 0.53537-1.0056 0.15193-0.78858-0.0868-1.1069-0.23874-0.31833-0.8971-0.31833h-0.94775z"/>
   <path d="m126.82 71.945h-2.5394l-0.98392 2.2355h-2.0547l4.9124-10.534h2.1198l0.69453 10.534h-2.0546zm-1.8159-1.6567h1.7508l-0.13746-3.5522-0.0434-0.0072z"/>
   <path d="m132.7 72.538h3.6318l-0.32556 1.6423h-5.6792l2.1053-10.534h2.0474z"/>
   <path d="m139.94 72.538h3.6318l-0.32556 1.6423h-5.6792l2.1053-10.534h2.0474z"/>
   <path d="m59.68 84.099 0.01447 0.04341q-0.43408 1.8159-1.3601 2.7564-0.92604 0.93328-2.4743 0.93328-1.4903 0-2.3657-1.2516-0.86816-1.2516-0.49196-3.1254l0.41961-2.0981q0.41238-2.0908 1.4686-3.2267 1.0563-1.1358 2.5756-1.1358 1.541 0 2.3513 1.0273 0.81029 1.0201 0.58601 2.7854h-2.033q0.17363-1.0707-0.07958-1.6133-0.24598-0.54984-1.0201-0.54984-0.59325 0-1.0852 0.74517-0.49196 0.74518-0.7307 1.9534l-0.41961 2.1125q-0.26768 1.295-0.01447 2.0185 0.25322 0.71624 0.97668 0.71624 0.64389 0 1.0418-0.49919 0.39791-0.50643 0.66559-1.5916z"/>
   <path d="m67.799 87.68h-2.033l0.86816-4.3625h-3.0024l-0.86816 4.3625h-2.0474l2.1053-10.534h2.0474l-0.90434 4.5289h3.0024l0.90434-4.5289h2.033z"/>
   <path d="m74.962 85.445h-2.5394l-0.98392 2.2355h-2.0547l4.9124-10.534h2.1198l0.69453 10.534h-2.0547zm-1.8159-1.6567h1.7508l-0.13746-3.5522-0.04341-0.0072z"/>
   <path d="m83.189 77.147 0.17363 7.7194 0.04341 0.0072 3.2773-7.7267h2.6624l-2.1053 10.534h-2.033l0.61495-3.0603 0.93328-3.8561-0.04341-0.01447-3.2122 6.9308h-1.3529l-0.42685-6.8513-0.04341-0.0072-0.59324 3.7982-0.61495 3.0603h-2.0329l2.1053-10.534z"/>
   <path d="m92.074 83.904-0.75241 3.7765h-2.0474l2.1053-10.534h3.5305q1.4035 0 2.1415 0.95498 0.73794 0.94775 0.44855 2.4236-0.32556 1.6133-1.3746 2.496-1.0418 0.88263-2.5683 0.88263zm0.3328-1.6495h1.4831q0.55707 0 0.99115-0.49196 0.43408-0.49919 0.57878-1.2227 0.15916-0.80305-0.05788-1.2733-0.20981-0.47026-0.81752-0.47026h-1.4831z"/>
   <path d="m100.03 87.68h-2.033l2.1053-10.534h2.033z"/>
   <path d="m110.13 83.368q-0.41961 2.0908-1.5772 3.2773-1.1576 1.1865-2.7781 1.1865-1.512 0-2.3874-1.295-0.8754-1.3022-0.49196-3.1977l0.3762-1.8738q0.41961-2.0981 1.5338-3.2846 1.1214-1.1865 2.7275-1.1865 1.5265 0 2.4381 1.3095 0.91158 1.3095 0.53537 3.1905zm-1.6568-1.8883q0.26045-1.2805-0.10852-2.0547-0.36173-0.77411-1.1576-0.77411-0.68006 0-1.172 0.76688-0.48473 0.76688-0.73794 2.033l-0.37621 1.8883q-0.26045 1.3022 0.0651 2.0764 0.32556 0.76688 1.1141 0.76688 0.6873 0 1.2154-0.77411 0.52813-0.78135 0.78135-2.0402z"/>
   <path d="m118.22 87.68h-2.033l-1.635-6.5619h-0.0434l-1.3095 6.5619h-2.0474l2.1053-10.534h2.0474l1.635 6.5474h0.0434l1.3095-6.5474h2.033z"/>
   <path d="m125.26 85.127q0.13746-0.71624-0.12299-1.0707-0.25322-0.36174-1.0418-0.78858-1.4542-0.59325-2.1198-1.4108-0.65835-0.82476-0.3979-2.1342 0.26045-1.3022 1.2371-2.0112 0.97668-0.71624 2.3223-0.71624 1.4325 0 2.2138 0.86816 0.78134 0.86816 0.45578 2.3585l-0.0145 0.03617h-1.9895q0.14469-0.73794-0.13022-1.172-0.27492-0.44132-0.86093-0.44132-0.39068 0-0.74518 0.31109-0.3545 0.31109-0.44131 0.75241-0.13746 0.68006 0.15192 1.0129 0.28939 0.3328 1.2733 0.81752 1.3384 0.55707 1.9317 1.3818 0.59324 0.82476 0.31832 2.1921-0.27491 1.3529-1.2371 2.0402-0.96221 0.68006-2.3223 0.68006-1.4035 0-2.3513-0.78135-0.94051-0.78858-0.57877-2.4381l0.0145-0.03617h1.9895q-0.1881 0.91881 0.20257 1.2661 0.39791 0.34727 1.049 0.34727 0.37621 0 0.73794-0.30386 0.36174-0.31109 0.45579-0.75964z"/>
   <path d="m135.49 87.68h-2.033l0.86817-4.3625h-3.0024l-0.86817 4.3625h-2.0474l2.1053-10.534h2.0474l-0.90434 4.5289h3.0024l0.90434-4.5289h2.033z"/>
   <path d="m139.69 87.68h-2.033l2.1053-10.534h2.033z"/>
   <path d="m144.69 83.904-0.75241 3.7765h-2.0474l2.1053-10.534h3.5305q1.4035 0 2.1415 0.95498 0.73794 0.94775 0.44855 2.4236-0.32556 1.6133-1.3746 2.496-1.0418 0.88263-2.5683 0.88263zm0.33279-1.6495h1.4831q0.55707 0 0.99115-0.49196 0.43408-0.49919 0.57878-1.2227 0.15916-0.80305-0.0579-1.2733-0.20981-0.47026-0.81752-0.47026h-1.4831z"/>
   <path d="m155.48 85.127q0.13746-0.71624-0.12299-1.0707-0.25322-0.36174-1.0418-0.78858-1.4542-0.59325-2.1198-1.4108-0.65836-0.82476-0.39791-2.1342 0.26045-1.3022 1.2371-2.0112 0.97668-0.71624 2.3223-0.71624 1.4325 0 2.2138 0.86816 0.78135 0.86816 0.45579 2.3585l-0.0145 0.03617h-1.9895q0.14469-0.73794-0.13023-1.172-0.27491-0.44132-0.86093-0.44132-0.39067 0-0.74517 0.31109-0.3545 0.31109-0.44132 0.75241-0.13746 0.68006 0.15193 1.0129 0.28939 0.3328 1.2733 0.81752 1.3384 0.55707 1.9317 1.3818 0.59325 0.82476 0.31833 2.1921-0.27492 1.3529-1.2371 2.0402-0.96222 0.68006-2.3223 0.68006-1.4035 0-2.3513-0.78135-0.94051-0.78858-0.57877-2.4381l0.0145-0.03617h1.9896q-0.1881 0.91881 0.20257 1.2661 0.39791 0.34727 1.049 0.34727 0.3762 0 0.73794-0.30386 0.36173-0.31109 0.45579-0.75964z"/>
  </g>
 </g>
</svg>
